{"title":"Tito El Bambino - Dame La Ola (h264/mp4)","uid":7506381,"size":40508299,"categoryP":"video","categoryS":"music_videos","magnet":"?xt=urn:btih:d443d333422e8a2b7b99f90b43dc4ba3ddb51f0f&amp;dn=Tito+El+Bambino+-+Dame+La+Ola+%28h264%2Fmp4%29&amp;tr=udp%3A%2F%2Ftracker.openbittorrent.com%3A80&amp;tr=udp%3A%2F%2Fopen.demonii.com%3A1337&amp;tr=udp%3A%2F%2Ftracker.coppersurfer.tk%3A6969&amp;tr=udp%3A%2F%2Fexodus.desync.com%3A6969","seeders":0,"leechers":1,"uploader":"MusicVideos-HQ","files":1,"time":1344187932,"description":"General\n\nFormat                         : MPEG-4\nFormat profile                 : Base Media\nCodec ID                       : isom\nFile size                      : 38.6 MiB\nDuration                       : 3mn 6s\nOverall bit rate mode          : Variable\nOverall bit rate               : 1 738 Kbps\nEncoded date                   : UTC 2012-08-03 16:11:23\nTagged date                    : UTC 2012-08-03 16:11:23\n\nVideo\nID                             : 1\nFormat                         : AVC\nFormat/Info                    : Advanced Video Codec\nFormat profile                 : &lt;a class=&quot;__cf_email__&quot; href=&quot;/cdn-cgi/l/email-protection&quot; data-cfemail=&quot;a6eecfc1cee6ea958896&quot;&gt;[email&amp;#160;protected]&lt;/a&gt;&lt;script cf-hash='f9e31' type=&quot;text/javascript&quot;&gt;\n/* &lt;![CDATA[ */!function(){try{var t=&quot;currentScript&quot;in document?document.currentScript:function(){for(var t=document.getElementsByTagName(&quot;script&quot;),e=t.length;e--;)if(t[e].getAttribute(&quot;cf-hash&quot;))return t[e]}();if(t&amp;&amp;t.previousSibling){var e,r,n,i,c=t.previousSibling,a=c.getAttribute(&quot;data-cfemail&quot;);if(a){for(e=&quot;&quot;,r=parseInt(a.substr(0,2),16),n=2;a.length-n;n+=2)i=parseInt(a.substr(n,2),16)^r,e+=String.fromCharCode(i);e=document.createTextNode(e),c.parentNode.replaceChild(e,c)}}}catch(u){}}();/* ]]&gt; */&lt;/script&gt;\nFormat settings, CABAC         : Yes\nFormat settings, ReFrames      : 2 frames\nCodec ID                       : avc1\nCodec ID/Info                  : Advanced Video Coding\nDuration                       : 3mn 6s\nBit rate                       : 1 506 Kbps\nMaximum bit rate               : 3 343 Kbps\nWidth                          : 720 pixels\nHeight                         : 480 pixels\nDisplay aspect ratio           : 16:9\nOriginal display aspect ratio  : 16:9\nFrame rate mode                : Constant\nFrame rate                     : 23.976 fps\nStandard                       : NTSC\nColor space                    : YUV\nChroma subsampling             : 4:2:0\nBit depth                      : 8 bits\nScan type                      : Progressive\nBits/(Pixel*Frame)             : 0.182\nStream size                    : 34.3 MiB (89%)\n\n\nAudio\nID                             : 2\nFormat                         : AAC\nFormat/Info                    : Advanced Audio Codec\nFormat profile                 : LC\nCodec ID                       : 40\nDuration                       : 3mn 6s\nBit rate mode                  : Variable\nBit rate                       : 192 Kbps\nMaximum bit rate               : 221 Kbps\nChannel(s)                     : 2 channels\nChannel positions              : Front: L R\nSampling rate                  : 44.1 KHz\nCompression mode               : Lossy\nDelay relative to video        : -833ms\nStream size                    : 4.21 MiB (11%)","torrent":{"xt":"urn:btih:d443d333422e8a2b7b99f90b43dc4ba3ddb51f0f","amp;dn":"Tito+El+Bambino+-+Dame+La+Ola+%28h264%2Fmp4%29","amp;tr":["udp%3A%2F%2Ftracker.openbittorrent.com%3A80","udp%3A%2F%2Fopen.demonii.com%3A1337","udp%3A%2F%2Ftracker.coppersurfer.tk%3A6969","udp%3A%2F%2Fexodus.desync.com%3A6969"],"infoHash":"d443d333422e8a2b7b99f90b43dc4ba3ddb51f0f","infoHashBuffer":{"type":"Buffer","data":[212,67,211,51,66,46,138,43,123,153,249,11,67,220,75,163,221,181,31,15]},"announce":[],"urlList":[]}}